<svg xmlns="http://www.w3.org/2000/svg" viewBox="0 0 192 128" role="img" aria-label="research">
  <path d="M24 101c24-14 121-18 146 0" fill="none" stroke="#4f91a2" stroke-width="5" stroke-linecap="round" opacity=".35"/>
  <rect x="50" y="21" width="92" height="84" rx="18" fill="#f8e8c8" stroke="#315f65" stroke-width="4"/>
  <g transform="translate(64 31)" fill="none" stroke="#263c40" stroke-width="4" stroke-linecap="round" stroke-linejoin="round"><path d="M18 49l25-31 4 4-25 31z" fill="#4f91a2"/><path d="M17 15l2 6 6 2-6 2-2 6-2-6-6-2 6-2zM45 39l1.5 4.5L51 45l-4.5 1.5L45 51l-1.5-4.5L39 45l4.5-1.5z" fill="#f0b34f"/></g>
  <circle cx="153" cy="31" r="8" fill="#e98d48"/><path d="M149 31h8M153 27v8" stroke="#fff7df" stroke-width="3" stroke-linecap="round"/>
</svg>
